{
  "accessors": [
    {
      "bufferView": 2,
      "componentType": 5126,
      "count": 6546,
      "max": [
        0.15336883068084717,
        0.14354601502418518,
        0.35967904329299927
      ],
      "min": [
        -0.11352386325597763,
        -0.2417547106742859,
        -4.3685961514938754e-08
      ],
      "type": "VEC3"
    },
    {
      "bufferView": 2,
      "byteOffset": 78552,
      "componentType": 5126,
      "count": 6546,
      "max": [
        1.0,
        1.0,
        1.0
      ],
      "min": [
        -1.0,
        -1.0,
        -1.0
      ],
      "type": "VEC3"
    },
    {
      "bufferView": 3,
      "componentType": 5126,
      "count": 6546,
      "max": [
        1.0,
        1.0,
        1.0,
        1.0
      ],
      "min": [
        -1.0,
        -1.0,
        -1.0,
        1.0
      ],
      "type": "VEC4"
    },
    {
      "bufferView": 3,
      "byteOffset": 104736,
      "componentType": 5126,
      "count": 6546,
      "max": [
        1.0,
        1.0,
        1.0,
        1.0
      ],
      "min": [
        0.9960784316062927,
        0.9960784316062927,
        0.9960784316062927,
        1.0
      ],
      "type": "VEC4"
    },
    {
      "bufferView": 1,
      "componentType": 5126,
      "count": 6546,
      "max": [
        0.9972571134567261,
        0.9972379803657532
      ],
      "min": [
        0.002563121961429715,
        0.002565238159149885
      ],
      "type": "VEC2"
    },
    {
      "bufferView": 0,
      "componentType": 5125,
      "count": 26424,
      "type": "SCALAR"
    },
    {
      "bufferView": 2,
      "byteOffset": 157104,
      "componentType": 5126,
      "count": 36,
      "max": [
        0.11352382600307465,
        0.14249995350837708,
        0.30129748582839966
      ],
      "min": [
        -0.11352377384901047,
        0.08427412807941437,
        0.041131388396024704
      ],
      "type": "VEC3"
    },
    {
      "bufferView": 2,
      "byteOffset": 157536,
      "componentType": 5126,
      "count": 36,
      "max": [
        0.9960094690322876,
        1.0,
        1.0
      ],
      "min": [
        -1.0,
        0.0,
        -7.026390812825412e-05
      ],
      "type": "VEC3"
    },
    {
      "bufferView": 3,
      "byteOffset": 209472,
      "componentType": 5126,
      "count": 36,
      "max": [
        9.240709914593026e-05,
        1.0,
        1.0,
        1.0
      ],
      "min": [
        -8.857202919898555e-05,
        -1.0,
        0.0,
        1.0
      ],
      "type": "VEC4"
    },
    {
      "bufferView": 3,
      "byteOffset": 210048,
      "componentType": 5126,
      "count": 36,
      "max": [
        1.0,
        1.0,
        1.0,
        1.0
      ],
      "min": [
        1.0,
        1.0,
        1.0,
        1.0
      ],
      "type": "VEC4"
    },
    {
      "bufferView": 1,
      "byteOffset": 52368,
      "componentType": 5126,
      "count": 36,
      "max": [
        0.9713349938392639,
        0.8959755897521973
      ],
      "min": [
        0.00257285893894732,
        0.002567776245996356
      ],
      "type": "VEC2"
    },
    {
      "bufferView": 0,
      "byteOffset": 105696,
      "componentType": 5125,
      "count": 90,
      "type": "SCALAR"
    },
    {
      "bufferView": 2,
      "byteOffset": 157968,
      "componentType": 5126,
      "count": 52,
      "max": [
        0.11071106791496277,
        0.1396455466747284,
        0.18296612799167633
      ],
      "min": [
        -0.11071103066205978,
        0.08710779249668121,
        0.054465651512145996
      ],
      "type": "VEC3"
    },
    {
      "bufferView": 2,
      "byteOffset": 158592,
      "componentType": 5126,
      "count": 52,
      "max": [
        0.9959558248519897,
        0.9939100742340088,
        1.0
      ],
      "min": [
        -0.9959558248519897,
        -1.0,
        -1.0
      ],
      "type": "VEC3"
    },
    {
      "bufferView": 3,
      "byteOffset": 210624,
      "componentType": 5126,
      "count": 52,
      "max": [
        1.0,
        1.0,
        1.0,
        1.0
      ],
      "min": [
        -0.00010843970812857151,
        -0.00012297213834244758,
        -0.00015416731184814125,
        1.0
      ],
      "type": "VEC4"
    },
    {
      "bufferView": 3,
      "byteOffset": 211456,
      "componentType": 5126,
      "count": 52,
      "max": [
        1.0,
        1.0,
        1.0,
        1.0
      ],
      "min": [
        1.0,
        1.0,
        1.0,
        1.0
      ],
      "type": "VEC4"
    },
    {
      "bufferView": 1,
      "byteOffset": 52656,
      "componentType": 5126,
      "count": 52,
      "max": [
        0.923749566078186,
        0.9163620471954346
      ],
      "min": [
        0.0028069824911653996,
        0.22137777507305145
      ],
      "type": "VEC2"
    },
    {
      "bufferView": 0,
      "byteOffset": 106056,
      "componentType": 5125,
      "count": 132,
      "type": "SCALAR"
    },
    {
      "bufferView": 2,
      "byteOffset": 159216,
      "componentType": 5126,
      "count": 100,
      "max": [
        0.013375011272728443,
        0.12082651257514954,
        0.05924520641565323
      ],
      "min": [
        -0.0133749945089221,
        0.0940764993429184,
        0.051073476672172546
      ],
      "type": "VEC3"
    },
    {
      "bufferView": 2,
      "byteOffset": 160416,
      "componentType": 5126,
      "count": 100,
      "max": [
        1.0,
        1.0,
        0.9561083912849426
      ],
      "min": [
        -1.0,
        -1.0,
        -2.7724843221221818e-06
      ],
      "type": "VEC3"
    },
    {
      "bufferView": 3,
      "byteOffset": 212288,
      "componentType": 5126,
      "count": 100,
      "max": [
        1.0,
        1.0,
        0.2875646948814392,
        1.0
      ],
      "min": [
        -1.0,
        -1.0,
        -0.2876822054386139,
        1.0
      ],
      "type": "VEC4"
    },
    {
      "bufferView": 3,
      "byteOffset": 213888,
      "componentType": 5126,
      "count": 100,
      "max": [
        1.0,
        1.0,
        1.0,
        1.0
      ],
      "min": [
        1.0,
        1.0,
        1.0,
        1.0
      ],
      "type": "VEC4"
    },
    {
      "bufferView": 1,
      "byteOffset": 53072,
      "componentType": 5126,
      "count": 100,
      "max": [
        0.5549813508987427,
        0.7417370676994324
      ],
      "min": [
        0.10944292694330215,
        0.3685626983642578
      ],
      "type": "VEC2"
    },
    {
      "bufferView": 0,
      "byteOffset": 106584,
      "componentType": 5125,
      "count": 288,
      "type": "SCALAR"
    },
    {
      "bufferView": 2,
      "byteOffset": 161616,
      "componentType": 5126,
      "count": 32,
      "max": [
        0.11068519949913025,
        0.14249995350837708,
        0.3012975752353668
      ],
      "min": [
        -0.11068514734506607,
        0.08401976525783539,
        0.041131213307380676
      ],
      "type": "VEC3"
    },
    {
      "bufferView": 2,
      "byteOffset": 162000,
      "componentType": 5126,
      "count": 32,
      "max": [
        1.0,
        0.0,
        6.980440957704559e-05
      ],
      "min": [
        -0.9960094690322876,
        -1.0,
        -0.0001233938237419352
      ],
      "type": "VEC3"
    },
    {
      "bufferView": 3,
      "byteOffset": 215488,
      "componentType": 5126,
      "count": 32,
      "max": [
        0.00041085618431679904,
        0.00011929988249903545,
        1.0,
        1.0
      ],
      "min": [
        -0.9486834406852722,
        -1.0,
        0.0,
        -1.0
      ],
      "type": "VEC4"
    },
    {
      "bufferView": 3,
      "byteOffset": 216000,
      "componentType": 5126,
      "count": 32,
      "max": [
        1.0,
        1.0,
        1.0,
        1.0
      ],
      "min": [
        1.0,
        1.0,
        1.0,
        1.0
      ],
      "type": "VEC4"
    },
    {
      "bufferView": 1,
      "byteOffset": 53872,
      "componentType": 5126,
      "count": 32,
      "max": [
        0.26974305510520935,
        0.3509432375431061
      ],
      "min": [
        0.00257285893894732,
        0.002567776245996356
      ],
      "type": "VEC2"
    },
    {
      "bufferView": 0,
      "byteOffset": 107736,
      "componentType": 5125,
      "count": 84,
      "type": "SCALAR"
    },
    {
      "bufferView": 2,
      "byteOffset": 162384,
      "componentType": 5126,
      "count": 16,
      "max": [
        0.02334175445139408,
        -0.13365194201469421,
        0.2778203785419464
      ],
      "min": [
        -0.0233417060226202,
        -0.1336519718170166,
        0.23113693296909332
      ],
      "type": "VEC3"
    },
    {
      "bufferView": 2,
      "byteOffset": 162576,
      "componentType": 5126,
      "count": 16,
      "max": [
        8.386591616726946e-06,
        -1.0,
        3.6675073715741746e-06
      ],
      "min": [
        -5.469232746690977e-06,
        -1.0,
        -1.6592131260040333e-06
      ],
      "type": "VEC3"
    },
    {
      "bufferView": 3,
      "byteOffset": 216512,
      "componentType": 5126,
      "count": 16,
      "max": [
        0.19509556889533997,
        5.23306880495511e-06,
        0.9807978272438049,
        1.0
      ],
      "min": [
        0.195027694106102,
        -1.6405118685725029e-06,
        0.9807842373847961,
        1.0
      ],
      "type": "VEC4"
    },
    {
      "bufferView": 3,
      "byteOffset": 216768,
      "componentType": 5126,
      "count": 16,
      "max": [
        1.0,
        1.0,
        1.0,
        1.0
      ],
      "min": [
        1.0,
        1.0,
        1.0,
        1.0
      ],
      "type": "VEC4"
    },
    {
      "bufferView": 1,
      "byteOffset": 54128,
      "componentType": 5126,
      "count": 16,
      "max": [
        0.9915744662284851,
        0.539608359336853
      ],
      "min": [
        0.9445557594299316,
        0.49258947372436523
      ],
      "type": "VEC2"
    },
    {
      "bufferView": 0,
      "byteOffset": 108072,
      "componentType": 5125,
      "count": 42,
      "type": "SCALAR"
    },
    {
      "bufferView": 2,
      "byteOffset": 162768,
      "componentType": 5126,
      "count": 4,
      "max": [
        1.0,
        1.0,
        0.0
      ],
      "min": [
        -1.0,
        -1.0,
        0.0
      ],
      "type": "VEC3"
    },
    {
      "bufferView": 2,
      "byteOffset": 162816,
      "componentType": 5126,
      "count": 4,
      "max": [
        0.0,
        0.0,
        1.0
      ],
      "min": [
        0.0,
        0.0,
        1.0
      ],
      "type": "VEC3"
    },
    {
      "bufferView": 1,
      "byteOffset": 54256,
      "componentType": 5126,
      "count": 4,
      "max": [
        1.0,
        1.0
      ],
      "min": [
        0.0,
        0.0
      ],
      "type": "VEC2"
    },
    {
      "bufferView": 0,
      "byteOffset": 108240,
      "componentType": 5125,
      "count": 6,
      "type": "SCALAR"
    }
  ],
  "asset": {
    "extras": {
      "author": "Stan (https://sketchfab.com/Stas_SayHallo)",
      "license": "CC-BY-4.0 (http://creativecommons.org/licenses/by/4.0/)",
      "source": "https://sketchfab.com/3d-models/espresso-machine15-bar-4f81a6ff548743eebb92f56178a701c5",
      "title": "Espresso Machine15 Bar"
    },
    "generator": "Sketchfab-15.0.0",
    "version": "2.0"
  },
  "bufferViews": [
    {
      "buffer": 0,
      "byteLength": 108264,
      "name": "floatBufferViews",
      "target": 34963
    },
    {
      "buffer": 0,
      "byteLength": 54288,
      "byteOffset": 108264,
      "byteStride": 8,
      "name": "floatBufferViews",
      "target": 34962
    },
    {
      "buffer": 0,
      "byteLength": 162864,
      "byteOffset": 162552,
      "byteStride": 12,
      "name": "floatBufferViews",
      "target": 34962
    },
    {
      "buffer": 0,
      "byteLength": 217024,
      "byteOffset": 325416,
      "byteStride": 16,
      "name": "floatBufferViews",
      "target": 34962
    }
  ],
  "buffers": [
    {
      "byteLength": 542440,
      "uri": "scene.bin"
    }
  ],
  "images": [
    {
      "uri": "textures/Plane__0_baseColor.png"
    },
    {
      "uri": "textures/eMachine15Bar_baseColor.jpeg"
    },
    {
      "uri": "textures/eMachine15Bar_metallicRoughness.png"
    },
    {
      "uri": "textures/eMachine15Bar_normal.png"
    },
    {
      "uri": "textures/eMachine15Bar_transparent_metallicRoughness.png"
    }
  ],
  "materials": [
    {
      "alphaMode": "BLEND",
      "name": "Plane__0",
      "pbrMetallicRoughness": {
        "baseColorTexture": {
          "index": 0
        },
        "metallicFactor": 0.0
      }
    },
    {
      "doubleSided": true,
      "name": "eMachine15Bar",
      "normalTexture": {
        "index": 3
      },
      "occlusionTexture": {
        "index": 2
      },
      "pbrMetallicRoughness": {
        "baseColorTexture": {
          "index": 1
        },
        "metallicRoughnessTexture": {
          "index": 2
        }
      }
    },
    {
      "alphaMode": "BLEND",
      "doubleSided": true,
      "name": "eMachine15Bar_transparent",
      "normalTexture": {
        "index": 3
      },
      "occlusionTexture": {
        "index": 4
      },
      "pbrMetallicRoughness": {
        "baseColorFactor": [
          0.08542824718157606,
          0.09297253310350859,
          0.10556041286686094,
          0.396921304318747
        ],
        "metallicFactor": 0.0,
        "metallicRoughnessTexture": {
          "index": 4
        }
      }
    }
  ],
  "meshes": [
    {
      "name": "eMachine15Bar_eMachine15Bar_0",
      "primitives": [
        {
          "attributes": {
            "COLOR_0": 3,
            "NORMAL": 1,
            "POSITION": 0,
            "TANGENT": 2,
            "TEXCOORD_0": 4
          },
          "indices": 5,
          "material": 1,
          "mode": 4
        }
      ]
    },
    {
      "name": "eMachine15Bar_glassOutter_eMachine15Bar_transparent_0",
      "primitives": [
        {
          "attributes": {
            "COLOR_0": 9,
            "NORMAL": 7,
            "POSITION": 6,
            "TANGENT": 8,
            "TEXCOORD_0": 10
          },
          "indices": 11,
          "material": 2,
          "mode": 4
        }
      ]
    },
    {
      "name": "eMachine15Bar_water_eMachine15Bar_transparent_0",
      "primitives": [
        {
          "attributes": {
            "COLOR_0": 15,
            "NORMAL": 13,
            "POSITION": 12,
            "TANGENT": 14,
            "TEXCOORD_0": 16
          },
          "indices": 17,
          "material": 2,
          "mode": 4
        }
      ]
    },
    {
      "name": "eMachine15Bar_glass2_eMachine15Bar_transparent_0",
      "primitives": [
        {
          "attributes": {
            "COLOR_0": 21,
            "NORMAL": 19,
            "POSITION": 18,
            "TANGENT": 20,
            "TEXCOORD_0": 22
          },
          "indices": 23,
          "material": 2,
          "mode": 4
        }
      ]
    },
    {
      "name": "eMachine15Bar_glassInner_eMachine15Bar_transparent_0",
      "primitives": [
        {
          "attributes": {
            "COLOR_0": 27,
            "NORMAL": 25,
            "POSITION": 24,
            "TANGENT": 26,
            "TEXCOORD_0": 28
          },
          "indices": 29,
          "material": 2,
          "mode": 4
        }
      ]
    },
    {
      "name": "frontGlass_eMachine15Bar_transparent_0",
      "primitives": [
        {
          "attributes": {
            "COLOR_0": 33,
            "NORMAL": 31,
            "POSITION": 30,
            "TANGENT": 32,
            "TEXCOORD_0": 34
          },
          "indices": 35,
          "material": 2,
          "mode": 4
        }
      ]
    },
    {
      "name": "Plane__0",
      "primitives": [
        {
          "attributes": {
            "NORMAL": 37,
            "POSITION": 36,
            "TEXCOORD_0": 38
          },
          "indices": 39,
          "material": 0,
          "mode": 4
        }
      ]
    }
  ],
  "nodes": [
    {
      "children": [
        1
      ],
      "matrix": [
        1.0,
        0.0,
        0.0,
        0.0,
        0.0,
        2.220446049250313e-16,
        -1.0,
        0.0,
        0.0,
        1.0,
        2.220446049250313e-16,
        0.0,
        0.0,
        0.0,
        0.0,
        1.0
      ],
      "name": "Sketchfab_model"
    },
    {
      "children": [
        2
      ],
      "matrix": [
        0.009999999776482582,
        0.0,
        0.0,
        0.0,
        0.0,
        0.0,
        0.009999999776482582,
        0.0,
        0.0,
        -0.009999999776482582,
        0.0,
        0.0,
        0.0,
        0.0,
        0.0,
        1.0
      ],
      "name": "7ea88d7f86e942b1a2c37b33023141b0.fbx"
    },
    {
      "children": [
        3,
        5,
        7,
        9,
        11,
        13,
        15
      ],
      "name": "RootNode"
    },
    {
      "children": [
        4
      ],
      "matrix": [
        100.0,
        0.0,
        0.0,
        0.0,
        0.0,
        -1.629206793918314e-05,
        -99.99999999999868,
        0.0,
        0.0,
        99.99999999999868,
        -1.629206793918314e-05,
        0.0,
        0.0,
        0.0,
        0.0,
        1.0
      ],
      "name": "eMachine15Bar"
    },
    {
      "mesh": 0,
      "name": "eMachine15Bar_eMachine15Bar_0"
    },
    {
      "children": [
        6
      ],
      "matrix": [
        100.0,
        0.0,
        0.0,
        0.0,
        0.0,
        -1.629206793918314e-05,
        -99.99999999999868,
        0.0,
        0.0,
        99.99999999999868,
        -1.629206793918314e-05,
        0.0,
        0.0,
        0.0,
        0.0,
        1.0
      ],
      "name": "eMachine15Bar_glassOutter"
    },
    {
      "mesh": 1,
      "name": "eMachine15Bar_glassOutter_eMachine15Bar_transparent_0"
    },
    {
      "children": [
        8
      ],
      "matrix": [
        100.0,
        0.0,
        0.0,
        0.0,
        0.0,
        -1.629206793918314e-05,
        -99.99999999999868,
        0.0,
        0.0,
        99.99999999999868,
        -1.629206793918314e-05,
        0.0,
        0.0,
        0.0,
        0.0,
        1.0
      ],
      "name": "eMachine15Bar_water"
    },
    {
      "mesh": 2,
      "name": "eMachine15Bar_water_eMachine15Bar_transparent_0"
    },
    {
      "children": [
        10
      ],
      "matrix": [
        100.0,
        0.0,
        0.0,
        0.0,
        0.0,
        -1.629206793918314e-05,
        -99.99999999999868,
        0.0,
        0.0,
        99.99999999999868,
        -1.629206793918314e-05,
        0.0,
        0.0,
        0.0,
        0.0,
        1.0
      ],
      "name": "eMachine15Bar_glass2"
    },
    {
      "mesh": 3,
      "name": "eMachine15Bar_glass2_eMachine15Bar_transparent_0"
    },
    {
      "children": [
        12
      ],
      "matrix": [
        100.0,
        0.0,
        0.0,
        0.0,
        0.0,
        -1.629206793918314e-05,
        -99.99999999999868,
        0.0,
        0.0,
        99.99999999999868,
        -1.629206793918314e-05,
        0.0,
        0.0,
        0.0,
        0.0,
        1.0
      ],
      "name": "eMachine15Bar_glassInner"
    },
    {
      "mesh": 4,
      "name": "eMachine15Bar_glassInner_eMachine15Bar_transparent_0"
    },
    {
      "children": [
        14
      ],
      "matrix": [
        100.0,
        0.0,
        0.0,
        0.0,
        0.0,
        -1.629206793918314e-05,
        -99.99999999999868,
        0.0,
        0.0,
        99.99999999999868,
        -1.629206793918314e-05,
        0.0,
        0.0,
        0.0,
        0.0,
        1.0
      ],
      "name": "frontGlass"
    },
    {
      "mesh": 5,
      "name": "frontGlass_eMachine15Bar_transparent_0"
    },
    {
      "children": [
        16
      ],
      "matrix": [
        100.0,
        0.0,
        0.0,
        0.0,
        0.0,
        -1.629206793918314e-05,
        -99.99999999999868,
        0.0,
        0.0,
        99.99999999999868,
        -1.629206793918314e-05,
        0.0,
        0.0,
        0.0,
        0.0,
        1.0
      ],
      "name": "Plane"
    },
    {
      "mesh": 6,
      "name": "Plane__0"
    }
  ],
  "samplers": [
    {
      "magFilter": 9729,
      "minFilter": 9987,
      "wrapS": 10497,
      "wrapT": 10497
    }
  ],
  "scene": 0,
  "scenes": [
    {
      "name": "Sketchfab_Scene",
      "nodes": [
        0
      ]
    }
  ],
  "textures": [
    {
      "sampler": 0,
      "source": 0
    },
    {
      "sampler": 0,
      "source": 1
    },
    {
      "sampler": 0,
      "source": 2
    },
    {
      "sampler": 0,
      "source": 3
    },
    {
      "sampler": 0,
      "source": 4
    }
  ]
}
